solid OpenSCAD_Model
  facet normal -1.000000 0.000000 0.000000
    outer loop
      vertex 0.000000 22.000000 23.000000
      vertex 0.000000 24.000000 0.000000
      vertex 0.000000 22.000000 2.000000
    endloop
  endfacet
  facet normal -1.000000 0.000000 -0.000000
    outer loop
      vertex 0.000000 0.000000 0.000000
      vertex 0.000000 0.000000 23.000000
      vertex 0.000000 2.000000 2.000000
    endloop
  endfacet
  facet normal -1.000000 -0.000000 0.000000
    outer loop
      vertex 0.000000 0.000000 0.000000
      vertex 0.000000 2.000000 2.000000
      vertex 0.000000 24.000000 0.000000
    endloop
  endfacet
  facet normal -1.000000 0.000000 0.000000
    outer loop
      vertex 0.000000 24.000000 0.000000
      vertex 0.000000 22.000000 23.000000
      vertex 0.000000 24.000000 23.000000
    endloop
  endfacet
  facet normal -1.000000 0.000000 0.000000
    outer loop
      vertex 0.000000 2.000000 2.000000
      vertex 0.000000 0.000000 23.000000
      vertex 0.000000 2.000000 23.000000
    endloop
  endfacet
  facet normal -1.000000 0.000000 0.000000
    outer loop
      vertex 0.000000 22.000000 2.000000
      vertex 0.000000 24.000000 0.000000
      vertex 0.000000 2.000000 2.000000
    endloop
  endfacet
  facet normal 0.000000 -1.000000 0.000000
    outer loop
      vertex 2.000000 0.000000 2.000000
      vertex 0.000000 0.000000 0.000000
      vertex 24.000000 0.000000 0.000000
    endloop
  endfacet
  facet normal 0.000000 -1.000000 0.000000
    outer loop
      vertex 2.000000 0.000000 2.000000
      vertex 2.000000 0.000000 23.000000
      vertex 0.000000 0.000000 23.000000
    endloop
  endfacet
  facet normal 0.000000 -1.000000 0.000000
    outer loop
      vertex 24.000000 0.000000 23.000000
      vertex 22.000000 0.000000 23.000000
      vertex 24.000000 0.000000 0.000000
    endloop
  endfacet
  facet normal 0.000000 -1.000000 0.000000
    outer loop
      vertex 22.000000 0.000000 23.000000
      vertex 22.000000 0.000000 2.000000
      vertex 24.000000 0.000000 0.000000
    endloop
  endfacet
  facet normal 0.000000 -1.000000 0.000000
    outer loop
      vertex 0.000000 0.000000 23.000000
      vertex 0.000000 0.000000 0.000000
      vertex 2.000000 0.000000 2.000000
    endloop
  endfacet
  facet normal 0.000000 -1.000000 0.000000
    outer loop
      vertex 22.000000 0.000000 2.000000
      vertex 2.000000 0.000000 2.000000
      vertex 24.000000 0.000000 0.000000
    endloop
  endfacet
  facet normal -0.000000 -0.000000 -1.000000
    outer loop
      vertex 0.000000 0.000000 0.000000
      vertex 0.000000 24.000000 0.000000
      vertex 24.000000 0.000000 0.000000
    endloop
  endfacet
  facet normal 0.000000 0.000000 -1.000000
    outer loop
      vertex 24.000000 0.000000 0.000000
      vertex 0.000000 24.000000 0.000000
      vertex 24.000000 24.000000 0.000000
    endloop
  endfacet
  facet normal 0.000000 1.000000 -0.000000
    outer loop
      vertex 22.000000 24.000000 23.000000
      vertex 24.000000 24.000000 0.000000
      vertex 22.000000 24.000000 2.000000
    endloop
  endfacet
  facet normal 0.000000 1.000000 0.000000
    outer loop
      vertex 0.000000 24.000000 0.000000
      vertex 0.000000 24.000000 23.000000
      vertex 2.000000 24.000000 2.000000
    endloop
  endfacet
  facet normal 0.000000 1.000000 0.000000
    outer loop
      vertex 0.000000 24.000000 0.000000
      vertex 2.000000 24.000000 2.000000
      vertex 24.000000 24.000000 0.000000
    endloop
  endfacet
  facet normal 0.000000 1.000000 0.000000
    outer loop
      vertex 24.000000 24.000000 0.000000
      vertex 22.000000 24.000000 23.000000
      vertex 24.000000 24.000000 23.000000
    endloop
  endfacet
  facet normal 0.000000 1.000000 0.000000
    outer loop
      vertex 2.000000 24.000000 2.000000
      vertex 0.000000 24.000000 23.000000
      vertex 2.000000 24.000000 23.000000
    endloop
  endfacet
  facet normal 0.000000 1.000000 -0.000000
    outer loop
      vertex 22.000000 24.000000 2.000000
      vertex 24.000000 24.000000 0.000000
      vertex 2.000000 24.000000 2.000000
    endloop
  endfacet
  facet normal 0.000000 -0.000000 1.000000
    outer loop
      vertex 0.000000 24.000000 23.000000
      vertex 0.000000 22.000000 23.000000
      vertex 2.000000 22.000000 23.000000
    endloop
  endfacet
  facet normal 0.000000 0.000000 1.000000
    outer loop
      vertex 2.000000 24.000000 23.000000
      vertex 0.000000 24.000000 23.000000
      vertex 2.000000 22.000000 23.000000
    endloop
  endfacet
  facet normal 0.000000 -1.000000 0.000000
    outer loop
      vertex 0.000000 22.000000 23.000000
      vertex 0.000000 22.000000 2.000000
      vertex 2.000000 22.000000 2.000000
    endloop
  endfacet
  facet normal 0.000000 -1.000000 0.000000
    outer loop
      vertex 2.000000 22.000000 23.000000
      vertex 0.000000 22.000000 23.000000
      vertex 2.000000 22.000000 2.000000
    endloop
  endfacet
  facet normal 0.000000 0.000000 1.000000
    outer loop
      vertex 22.000000 2.000000 2.000000
      vertex 24.000000 2.000000 2.000000
      vertex 0.000000 22.000000 2.000000
    endloop
  endfacet
  facet normal 0.000000 -0.000000 1.000000
    outer loop
      vertex 0.000000 22.000000 2.000000
      vertex 0.000000 2.000000 2.000000
      vertex 2.000000 2.000000 2.000000
    endloop
  endfacet
  facet normal 0.000000 0.000000 1.000000
    outer loop
      vertex 22.000000 0.000000 2.000000
      vertex 0.000000 22.000000 2.000000
      vertex 2.000000 2.000000 2.000000
    endloop
  endfacet
  facet normal 0.000000 0.000000 1.000000
    outer loop
      vertex 2.000000 0.000000 2.000000
      vertex 22.000000 0.000000 2.000000
      vertex 2.000000 2.000000 2.000000
    endloop
  endfacet
  facet normal 0.000000 0.000000 1.000000
    outer loop
      vertex 22.000000 0.000000 2.000000
      vertex 22.000000 2.000000 2.000000
      vertex 0.000000 22.000000 2.000000
    endloop
  endfacet
  facet normal 0.000000 0.000000 1.000000
    outer loop
      vertex 24.000000 2.000000 2.000000
      vertex 22.000000 22.000000 2.000000
      vertex 2.000000 22.000000 2.000000
    endloop
  endfacet
  facet normal 0.000000 0.000000 1.000000
    outer loop
      vertex 24.000000 2.000000 2.000000
      vertex 24.000000 22.000000 2.000000
      vertex 22.000000 22.000000 2.000000
    endloop
  endfacet
  facet normal 0.000000 0.000000 1.000000
    outer loop
      vertex 24.000000 2.000000 2.000000
      vertex 2.000000 22.000000 2.000000
      vertex 0.000000 22.000000 2.000000
    endloop
  endfacet
  facet normal -0.000000 0.000000 1.000000
    outer loop
      vertex 22.000000 22.000000 2.000000
      vertex 22.000000 24.000000 2.000000
      vertex 2.000000 22.000000 2.000000
    endloop
  endfacet
  facet normal 0.000000 -0.000000 1.000000
    outer loop
      vertex 2.000000 24.000000 2.000000
      vertex 2.000000 22.000000 2.000000
      vertex 22.000000 24.000000 2.000000
    endloop
  endfacet
  facet normal 0.000000 1.000000 0.000000
    outer loop
      vertex 0.000000 2.000000 2.000000
      vertex 0.000000 2.000000 23.000000
      vertex 2.000000 2.000000 2.000000
    endloop
  endfacet
  facet normal 0.000000 1.000000 0.000000
    outer loop
      vertex 2.000000 2.000000 2.000000
      vertex 0.000000 2.000000 23.000000
      vertex 2.000000 2.000000 23.000000
    endloop
  endfacet
  facet normal 0.000000 -0.000000 1.000000
    outer loop
      vertex 0.000000 2.000000 23.000000
      vertex 0.000000 0.000000 23.000000
      vertex 2.000000 0.000000 23.000000
    endloop
  endfacet
  facet normal 0.000000 0.000000 1.000000
    outer loop
      vertex 2.000000 2.000000 23.000000
      vertex 0.000000 2.000000 23.000000
      vertex 2.000000 0.000000 23.000000
    endloop
  endfacet
  facet normal 1.000000 0.000000 -0.000000
    outer loop
      vertex 2.000000 0.000000 23.000000
      vertex 2.000000 0.000000 2.000000
      vertex 2.000000 2.000000 2.000000
    endloop
  endfacet
  facet normal 1.000000 0.000000 0.000000
    outer loop
      vertex 2.000000 2.000000 23.000000
      vertex 2.000000 0.000000 23.000000
      vertex 2.000000 2.000000 2.000000
    endloop
  endfacet
  facet normal -1.000000 -0.000000 -0.000000
    outer loop
      vertex 22.000000 0.000000 2.000000
      vertex 22.000000 0.000000 23.000000
      vertex 22.000000 2.000000 2.000000
    endloop
  endfacet
  facet normal -1.000000 0.000000 0.000000
    outer loop
      vertex 22.000000 2.000000 2.000000
      vertex 22.000000 0.000000 23.000000
      vertex 22.000000 2.000000 23.000000
    endloop
  endfacet
  facet normal 0.000000 -0.000000 1.000000
    outer loop
      vertex 22.000000 2.000000 23.000000
      vertex 22.000000 0.000000 23.000000
      vertex 24.000000 0.000000 23.000000
    endloop
  endfacet
  facet normal 0.000000 0.000000 1.000000
    outer loop
      vertex 24.000000 2.000000 23.000000
      vertex 22.000000 2.000000 23.000000
      vertex 24.000000 0.000000 23.000000
    endloop
  endfacet
  facet normal 1.000000 0.000000 -0.000000
    outer loop
      vertex 24.000000 2.000000 2.000000
      vertex 24.000000 0.000000 0.000000
      vertex 24.000000 24.000000 0.000000
    endloop
  endfacet
  facet normal 1.000000 0.000000 0.000000
    outer loop
      vertex 24.000000 2.000000 2.000000
      vertex 24.000000 2.000000 23.000000
      vertex 24.000000 0.000000 23.000000
    endloop
  endfacet
  facet normal 1.000000 0.000000 0.000000
    outer loop
      vertex 24.000000 24.000000 23.000000
      vertex 24.000000 22.000000 23.000000
      vertex 24.000000 24.000000 0.000000
    endloop
  endfacet
  facet normal 1.000000 0.000000 -0.000000
    outer loop
      vertex 24.000000 22.000000 23.000000
      vertex 24.000000 22.000000 2.000000
      vertex 24.000000 24.000000 0.000000
    endloop
  endfacet
  facet normal 1.000000 0.000000 -0.000000
    outer loop
      vertex 24.000000 0.000000 23.000000
      vertex 24.000000 0.000000 0.000000
      vertex 24.000000 2.000000 2.000000
    endloop
  endfacet
  facet normal 1.000000 0.000000 -0.000000
    outer loop
      vertex 24.000000 22.000000 2.000000
      vertex 24.000000 2.000000 2.000000
      vertex 24.000000 24.000000 0.000000
    endloop
  endfacet
  facet normal 0.000000 -0.000000 1.000000
    outer loop
      vertex 22.000000 24.000000 23.000000
      vertex 22.000000 22.000000 23.000000
      vertex 24.000000 22.000000 23.000000
    endloop
  endfacet
  facet normal 0.000000 0.000000 1.000000
    outer loop
      vertex 24.000000 24.000000 23.000000
      vertex 22.000000 24.000000 23.000000
      vertex 24.000000 22.000000 23.000000
    endloop
  endfacet
  facet normal -1.000000 -0.000000 -0.000000
    outer loop
      vertex 22.000000 22.000000 2.000000
      vertex 22.000000 22.000000 23.000000
      vertex 22.000000 24.000000 2.000000
    endloop
  endfacet
  facet normal -1.000000 0.000000 0.000000
    outer loop
      vertex 22.000000 24.000000 2.000000
      vertex 22.000000 22.000000 23.000000
      vertex 22.000000 24.000000 23.000000
    endloop
  endfacet
  facet normal 1.000000 0.000000 -0.000000
    outer loop
      vertex 2.000000 22.000000 23.000000
      vertex 2.000000 22.000000 2.000000
      vertex 2.000000 24.000000 2.000000
    endloop
  endfacet
  facet normal 1.000000 0.000000 0.000000
    outer loop
      vertex 2.000000 24.000000 23.000000
      vertex 2.000000 22.000000 23.000000
      vertex 2.000000 24.000000 2.000000
    endloop
  endfacet
  facet normal 0.000000 -1.000000 0.000000
    outer loop
      vertex 22.000000 22.000000 23.000000
      vertex 22.000000 22.000000 2.000000
      vertex 24.000000 22.000000 2.000000
    endloop
  endfacet
  facet normal 0.000000 -1.000000 0.000000
    outer loop
      vertex 24.000000 22.000000 23.000000
      vertex 22.000000 22.000000 23.000000
      vertex 24.000000 22.000000 2.000000
    endloop
  endfacet
  facet normal 0.000000 1.000000 0.000000
    outer loop
      vertex 22.000000 2.000000 2.000000
      vertex 22.000000 2.000000 23.000000
      vertex 24.000000 2.000000 2.000000
    endloop
  endfacet
  facet normal 0.000000 1.000000 0.000000
    outer loop
      vertex 24.000000 2.000000 2.000000
      vertex 22.000000 2.000000 23.000000
      vertex 24.000000 2.000000 23.000000
    endloop
  endfacet
endsolid OpenSCAD_Model
